<svg width="30" height="30" viewBox="0 0 30 30" fill="none" xmlns="http://www.w3.org/2000/svg">
<path d="M13.472 17.696C13.472 17.056 13.576 16.496 13.784 16.016C14.008 15.52 14.272 15.104 14.576 14.768C14.896 14.432 15.312 14.032 15.824 13.568C16.464 13.008 16.936 12.528 17.24 12.128C17.544 11.712 17.696 11.216 17.696 10.64C17.696 9.856 17.392 9.232 16.784 8.768C16.176 8.288 15.336 8.048 14.264 8.048C12.392 8.048 10.96 8.68 9.968 9.944L8.216 8.696C8.888 7.832 9.744 7.168 10.784 6.704C11.84 6.24 13.056 6.008 14.432 6.008C16.176 6.008 17.56 6.392 18.584 7.16C19.608 7.912 20.12 8.952 20.12 10.28C20.12 10.936 20.008 11.52 19.784 12.032C19.576 12.528 19.32 12.944 19.016 13.28C18.712 13.616 18.304 14.016 17.792 14.48C17.136 15.072 16.648 15.592 16.328 16.04C16.024 16.488 15.872 17.04 15.872 17.696H13.472ZM14.696 23.144C14.248 23.144 13.872 23 13.568 22.712C13.28 22.408 13.136 22.04 13.136 21.608C13.136 21.176 13.28 20.816 13.568 20.528C13.872 20.224 14.248 20.072 14.696 20.072C15.144 20.072 15.512 20.224 15.8 20.528C16.088 20.816 16.232 21.176 16.232 21.608C16.232 22.04 16.08 22.408 15.776 22.712C15.488 23 15.128 23.144 14.696 23.144Z" fill="black"/>
<circle cx="15" cy="15" r="14" stroke="black" stroke-width="2"/>
</svg>
